<svg aria-hidden="true" style="width:0;height:0;position:absolute;overflow:hidden" xmlns="http://www.w3.org/2000/svg"><defs><symbol id="icon-ChevronDown" viewBox="0 0 32 32"><path d="M15.292 22.708a.991.991 0 0 0 .708.293 1.002 1.002 0 0 0 .708-.293l12-12A1 1 0 0 0 28 8.999a1 1 0 0 0-.708.293L16 20.586 4.708 9.292A1 1 0 0 0 2.999 10c0 .266.106.52.293.708l12 12z"/></symbol><symbol id="icon-ChevronUp" viewBox="0 0 32 32"><path d="M15.292 9.757A.991.991 0 0 1 16 9.464a1.002 1.002 0 0 1 .708.293l12 12A1 1 0 0 1 28 23.466a1 1 0 0 1-.708-.293L16 11.879 4.708 23.173a1 1 0 0 1-1.709-.708c0-.266.106-.52.293-.708l12-12z"/></symbol><symbol id="icon-elips-round-blue" viewBox="0 0 26 32"><path fill="#fff" style="fill:var(--color1,#fff);stroke:var(--color2,#67aefc)" stroke="#67aefc" stroke-width=".35" d="M25.53 16c0 4.34-2.692 8.292-7.091 11.167-4.398 2.874-10.484 4.658-17.215 4.658-.522 0-.987-.025-1.399-.074V.204C.258.185.723.175 1.224.175c6.731 0 12.817 1.784 17.215 4.658C22.838 7.708 25.53 11.66 25.53 16z"/></symbol><symbol id="icon-dot-fill-none" viewBox="0 0 32 32"><path d="M32 16c0 8.837-7.163 16-16 16S0 24.837 0 16 7.163 0 16 0s16 7.163 16 16z"/></symbol><symbol id="icon-dot-green" viewBox="0 0 32 32"><path fill="#75e169" style="fill:var(--color3,#75e169)" d="M32 16c0 8.837-7.163 16-16 16S0 24.837 0 16 7.163 0 16 0s16 7.163 16 16z"/></symbol><symbol id="icon-viber" viewBox="0 0 32 32"><path fill="#fff" style="fill:var(--color1,#fff)" d="M8.144 28.9c0-.535.178-1.115-.045-1.516-.223-.357-.847-.491-1.293-.714-2.364-1.249-4.192-3.033-5.129-5.53-.401-.981-.535-2.096-.714-3.166S.74 15.833.695 14.763c-.089-2.319.178-4.638.669-6.913.268-1.293.937-2.408 1.739-3.389C4.352 2.9 5.868 1.607 7.786.982 8.901.625 10.061.447 11.22.313c1.561-.178 3.166-.312 4.728-.312s3.122.134 4.683.268c1.026.089 2.051.268 3.077.491 1.784.401 3.256 1.427 4.549 2.676 1.249 1.204 2.275 2.631 2.631 4.371.535 2.542.847 5.084.624 7.671a54.795 54.795 0 0 1-.58 4.638c-.312 1.784-1.293 3.166-2.542 4.415-1.293 1.338-2.765 2.408-4.638 2.81-1.427.312-2.899.446-4.326.624a20.46 20.46 0 0 1-2.364.134c-.892 0-1.829-.045-2.72-.045-.223 0-.535.134-.714.312-1.026 1.026-1.962 2.051-2.944 3.077-.714.714-1.695.758-2.23.045-.223-.312-.312-.758-.357-1.115 0-.535.045-.981.045-1.472zm1.249-1.383v2.676c0 .134.089.312.178.357s.268-.089.357-.178c.089-.045.134-.134.223-.223 1.516-1.561 2.988-3.077 4.504-4.594.178-.178.446-.312.713-.312 2.141 0 4.282-.178 6.422-.446 1.249-.178 2.408-.491 3.434-1.293 1.338-1.07 2.587-2.23 2.899-3.969a37.89 37.89 0 0 0 .58-5.04c.045-1.383-.134-2.81-.268-4.192-.134-1.472-.491-2.899-1.561-4.103s-2.275-2.319-3.925-2.631a35.29 35.29 0 0 0-4.861-.58c-2.676-.134-5.396-.045-8.028.446-2.854.491-4.817 2.141-5.798 4.817-.446 1.204-.535 2.542-.624 3.835a37.354 37.354 0 0 0 .089 4.995c.045.981.178 2.007.535 2.944.803 2.185 2.408 3.613 4.549 4.46.401.178.58.357.58.803-.045.669 0 1.472 0 2.23z"/><path fill="#fff" style="fill:var(--color1,#fff)" d="M17.376 18.018c.178-.089.401-.178.58-.312.223-.178.357-.446.58-.624.446-.446.981-.624 1.516-.312.981.669 1.962 1.338 2.899 2.096.357.268.491.669.268 1.115-.491 1.115-1.204 2.007-2.453 2.364a1.077 1.077 0 0 1-.535 0c-4.148-1.472-7.626-3.791-9.945-7.626-.803-1.293-1.383-2.721-2.052-4.103-.357-.669-.223-1.293.178-1.918a4.645 4.645 0 0 1 1.873-1.606c.446-.223.937-.178 1.249.223a31.83 31.83 0 0 1 2.007 2.81c.446.714.223 1.293-.401 1.829-.134.089-.223.178-.357.268-.401.312-.491.713-.312 1.16.758 2.096 2.141 3.657 4.282 4.46.178.089.357.089.624.178zM23.798 13.915c0 .134.089.312.045.446-.089.178-.223.446-.401.491-.134.045-.446-.223-.491-.357-.134-.446-.134-.892-.178-1.338-.178-2.631-2.185-5.129-4.727-5.753-.535-.134-1.115-.178-1.695-.268-.134 0-.223-.045-.357-.045-.312-.045-.535-.134-.535-.491.045-.401.357-.491.669-.491 3.434.134 6.378 2.096 7.359 5.619.178.714.268 1.472.357 2.185 0-.045 0 0-.045 0z"/><path fill="#fff" style="fill:var(--color1,#fff)" d="M21.88 13.424c-.045.089 0 .268-.089.357-.134.134-.312.312-.491.312-.134 0-.357-.223-.357-.357-.134-.491-.134-1.07-.268-1.561-.446-1.695-1.873-2.854-3.657-3.033-.178 0-.312-.045-.491-.089-.268-.045-.446-.223-.401-.491.045-.312.268-.446.535-.446 2.631.178 4.861 1.829 5.173 4.727 0 .134.045.357.045.58z"/><path fill="#fff" style="fill:var(--color1,#fff)" d="M17.286 10.125c1.516.045 2.676 1.338 2.587 2.765 0 .312-.134.58-.446.535-.178-.045-.357-.268-.535-.446-.045-.045 0-.134 0-.178-.223-1.16-.535-1.472-1.739-1.695-.312-.045-.535-.223-.535-.535.045-.312.268-.446.58-.446h.089z"/></symbol><symbol id="icon-tel" viewBox="0 0 39 32"><path fill="#fff" style="fill:var(--color1,#fff)" d="M36.97.65 1.614 14.106c-1.021.371-.974 1.81.046 2.134l9.094 3.062L31.541 5.893 15.116 21.251l12.806 9.697c1.346 1.021 3.248.325 3.666-1.299l6.913-27.7c.232-.882-.65-1.624-1.531-1.299z"/></symbol><symbol id="icon-whatsapp" viewBox="0 0 33 32"><path fill="#fff" style="fill:var(--color1,#fff)" d="m.379 32 2.256-8.588C1.372 21.062.65 18.44.65 15.819.65 7.051 7.778 0 16.439 0s15.79 7.051 15.79 15.819c0 8.678-7.038 15.819-15.79 15.819-2.617 0-5.143-.633-7.489-1.898L.379 32zm9.022-5.514.541.362c1.985 1.175 4.241 1.808 6.496 1.808 7.038 0 12.812-5.785 12.812-12.836S23.476 2.984 16.438 2.984 3.626 8.769 3.626 15.82c0 2.35.632 4.61 1.895 6.599l.361.542-1.263 4.791 4.782-1.265z"/><path fill="#fff" style="fill:var(--color1,#fff)" d="M22.303 17.989c-.632-.362-1.534-.814-2.256-.542-.631.271-.992 1.175-1.353 1.627-.18.271-.451.271-.722.181-2.165-.904-3.88-2.35-5.143-4.339-.181-.271-.181-.542.09-.813.361-.452.812-.904.902-1.537.09-.542-.181-1.265-.451-1.808-.271-.633-.631-1.627-1.353-1.989-.632-.362-1.444-.181-1.985.271-.902.723-1.353 1.989-1.353 3.164 0 .361.09.633.09.994.18.814.541 1.537.992 2.169.271.542.632.994.992 1.537a15.518 15.518 0 0 0 4.331 4.068c.812.542 1.804.994 2.707 1.266 1.083.361 1.985.723 3.158.542 1.173-.271 2.346-.994 2.887-2.169.18-.361.18-.723.09-1.085 0-.723-.992-1.175-1.624-1.537z"/></symbol><symbol id="icon-dot-wight" viewBox="0 0 32 32"><path fill="#fff" style="fill:var(--color1,#fff)" d="M32 16c0 8.837-7.163 16-16 16S0 24.837 0 16 7.163 0 16 0s16 7.163 16 16z"/></symbol><symbol id="icon-facebook" viewBox="0 0 16 32"><path fill="#fff" style="fill:var(--color1,#fff)" d="M15.261 11.203h-4.61V8.196c.301-2.906 5.111-2.305 5.111-2.305V.98c-.2 0-9.421-2.205-11.325 4.811-.301.902-.301 4.911-.301 5.412H.127v5.412h4.209v14.732h6.113V16.615h4.811l.501-5.412h-.501z"/></symbol><symbol id="icon-insta" viewBox="0 0 33 32"><path fill="#fff" style="fill:var(--color1,#fff)" d="M16.225.208c-3.948 0-4.571 0-6.234.104s-2.909.312-3.844.727c-1.039.416-1.974.935-2.805 1.87-.935.935-1.455 1.766-1.87 2.805S.849 7.896.745 9.558C.641 11.22.641 11.844.641 16.103c0 4.364 0 4.883.104 6.546s.312 2.909.727 3.844c.416 1.039.935 1.974 1.87 2.805.935.935 1.766 1.454 2.805 1.87s2.182.623 3.844.727 2.286.104 6.545.104c4.364 0 4.883 0 6.546-.104s2.909-.312 3.844-.727c1.039-.416 1.974-.935 2.805-1.87.935-.935 1.454-1.766 1.87-2.805s.623-2.182.727-3.844c.104-1.662.104-2.182.104-6.234v-.831c0-3.948 0-4.571-.104-6.234s-.312-2.909-.727-3.844c-.416-1.039-.935-1.974-1.87-2.805-.935-.935-1.766-1.455-2.805-1.87S24.744.208 23.082.104C21.42 0 20.9 0 16.848 0h-.623v.208zm10.909 7.376c0 1.039-.831 1.87-1.87 1.87s-1.87-.831-1.87-1.87c0-1.039.831-1.87 1.87-1.87.935 0 1.87.831 1.87 1.87zM16.641 21.403c-2.909 0-5.299-2.39-5.299-5.299s2.39-5.299 5.299-5.299c2.909 0 5.299 2.39 5.299 5.299s-2.39 5.299-5.299 5.299zm0-13.507c4.571 0 8.208 3.636 8.208 8.208s-3.636 8.208-8.208 8.208c-4.571 0-8.208-3.636-8.208-8.208s3.74-8.208 8.208-8.208zm0-4.883c4.26 0 4.779 0 6.442.104 1.558.104 2.39.312 3.013.519a6.953 6.953 0 0 1 1.87 1.143c.52.519.935 1.039 1.143 1.87.208.519.52 1.455.52 3.013.104 1.662.104 2.182.104 6.442s0 4.779-.104 6.442c-.104 1.558-.312 2.39-.52 3.013a6.953 6.953 0 0 1-1.143 1.87c-.519.519-1.039.935-1.87 1.143-.52.208-1.454.519-3.013.519-1.662.104-2.182.104-6.442.104s-4.779 0-6.441-.104c-1.558-.104-2.39-.312-3.013-.519a6.953 6.953 0 0 1-1.87-1.143c-.519-.519-.935-1.039-1.143-1.87-.208-.519-.519-1.454-.519-3.013-.104-1.662-.104-2.182-.104-6.442s0-4.779.104-6.442c.104-1.558.312-2.39.519-3.013a6.953 6.953 0 0 1 1.143-1.87c.519-.519 1.039-.935 1.87-1.143.519-.208 1.455-.519 3.013-.519 1.662-.104 2.182-.104 6.441-.104z"/></symbol><symbol id="icon-Frame" viewBox="0 0 136 32"><path fill="#4b086d" style="fill:var(--color4,#4b086d)" d="M26.377 6.455 17.281 31.7h23.877V6.455H26.377z"/><path fill="#fff" style="fill:var(--color1,#fff)" d="M27.514 9.684h4.547l5.458 9.256-5.458 9.482h-4.547l5.002-9.482-5.002-9.256z"/><path fill="#4b086d" style="fill:var(--color4,#4b086d)" d="M14.781 25.155 23.876 0H.001v25.155h14.781z"/><path fill="#fff" style="fill:var(--color1,#fff)" d="M13.87 21.966H9.323L3.865 12.71l5.458-9.482h4.547L8.868 12.71l5.002 9.256zM44.749 11.49a17.89 17.89 0 0 1 2.707-.184c1.64 0 2.656.266 3.501.847.938.646 1.542 1.708 1.542 3.271 0 1.734-.656 2.861-1.487 3.509-.935.725-2.33 1.048-3.995 1.048-.758.01-1.516-.037-2.267-.139V11.49zm2.277 6.695c.16.021.322.03.484.025 1.476.018 2.569-.792 2.569-2.713 0-1.663-.984-2.446-2.359-2.446a3.168 3.168 0 0 0-.694.056v5.079zM60.826 16.454h-3.06v1.568h3.424v1.864h-5.704v-8.514h5.524v1.864h-3.244v1.375h3.06v1.844zM66.367 19.886l-2.705-8.514h2.503l.904 3.351c.268.953.502 1.885.707 2.977h.024c.205-1.038.449-2.024.699-2.94l.925-3.386h2.428l-2.788 8.514-2.697-.003zM79.891 16.454h-3.064v1.568h3.421v1.864h-5.701v-8.514h5.523v1.864h-3.243v1.375h3.064v1.844zM83.287 11.372h2.28v6.603h3.281v1.911h-5.561v-8.514zM99.249 15.543c0 2.738-1.64 4.482-4.265 4.482s-4.101-1.98-4.101-4.346c0-2.479 1.623-4.446 4.231-4.446 2.745 0 4.136 2.031 4.136 4.31zm-5.948.096c0 1.601.697 2.58 1.786 2.58s1.75-1.068 1.75-2.602c0-1.467-.656-2.577-1.763-2.577-1.074 0-1.772 1.027-1.772 2.598h-.001zM102.236 11.49a17.574 17.574 0 0 1 2.807-.184c1.226 0 2.103.221 2.701.679a2.52 2.52 0 0 1 .969 2.049c0 .863-.288 1.617-.828 2.1-.688.617-1.687.891-2.835.891-.222 0-.416-.018-.556-.028v2.889h-2.257V11.49zm2.262 3.757c.173.027.347.038.522.033.886 0 1.442-.459 1.442-1.191 0-.635-.42-1.065-1.288-1.065a3.196 3.196 0 0 0-.676.059v2.164zM116.948 16.454h-3.06v1.568h3.419v1.864h-5.699v-8.514h5.522v1.864h-3.242v1.375h3.06v1.844zM120.349 11.49a18.617 18.617 0 0 1 2.751-.184c1.313 0 2.238.18 2.879.656.546.417.84 1.024.84 1.857 0 1.061-.796 1.816-1.458 2.059v.044c.566.243.871.786 1.089 1.526.256.865.536 2.103.701 2.431h-2.33c-.129-.246-.351-.912-.597-1.969-.232-1.02-.543-1.232-1.247-1.232h-.371v3.192h-2.257v-8.381zm2.257 3.561h.594c.86 0 1.355-.42 1.355-1.058s-.42-1.001-1.178-1.007a3.555 3.555 0 0 0-.771.051v2.014zM130.062 17.619a5.235 5.235 0 0 0 2.208.527c.779 0 1.165-.271 1.165-.7s-.382-.646-1.345-.976c-1.434-.509-2.39-1.301-2.39-2.567 0-1.506 1.27-2.661 3.42-2.661a5.571 5.571 0 0 1 2.297.435l-.477 1.823a4.51 4.51 0 0 0-1.851-.404c-.694 0-1.076.254-1.076.628 0 .431.451.605 1.525 1.007 1.534.561 2.22 1.383 2.22 2.567 0 1.476-1.148 2.722-3.629 2.722-1.027 0-2.021-.269-2.503-.518l.436-1.882z"/></symbol><symbol id="icon-elipse-green" viewBox="0 0 24 32"><path fill="#fff" style="fill:var(--color1,#fff);stroke:var(--color3,#75e169)" stroke="#75e169" stroke-width=".97" d="M23.273 16c0 4.079-2.747 7.863-7.215 10.694-4.344 2.753-10.241 4.551-16.543 4.793V.513c6.302.242 12.199 2.041 16.543 4.793 4.468 2.831 7.215 6.615 7.215 10.694z"/></symbol><symbol id="icon-ellipse-blue" viewBox="0 0 23 32"><path fill="#daecff" style="fill:var(--color5,#daecff)" d="M23.273 14.009c0 8.837-.138 17.991 0 17.991C9.791 32 0 24.837 0 16S9.791 0 23.273 0v14.009z"/></symbol><symbol id="icon-Ellipse-2--" viewBox="0 0 23 32"><path fill="#daecff" style="fill:var(--color5,#daecff)" d="M23.273 14.009c0 8.837-.138 17.991 0 17.991C9.791 32 0 24.837 0 16S9.791 0 23.273 0v14.009z"/></symbol><symbol id="icon-x" viewBox="0 0 24 24"><path d="M5.293 6.707 10.586 12l-5.293 5.293a.999.999 0 1 0 1.414 1.414L12 13.414l5.293 5.293a.999.999 0 1 0 1.414-1.414L13.414 12l5.293-5.293a.999.999 0 1 0-1.414-1.414L12 10.586 6.707 5.293a.999.999 0 1 0-1.414 1.414z"/></symbol></defs></svg>