<!-- Generated by IcoMoon.io -->
<svg version="1.1" xmlns="http://www.w3.org/2000/svg" width="136" height="32" viewBox="0 0 136 32">
<title>Frame</title>
<path fill="#4b086d" d="M26.377 6.455l-9.096 25.245h23.877v-25.245h-14.781z"></path>
<path fill="#fff" d="M27.514 9.684h4.547l5.458 9.256-5.458 9.482h-4.547l5.002-9.482-5.002-9.256z"></path>
<path fill="#4b086d" d="M14.781 25.155l9.095-25.155h-23.875v25.155h14.781z"></path>
<path fill="#fff" d="M13.87 21.966h-4.547l-5.458-9.256 5.458-9.482h4.547l-5.002 9.482 5.002 9.256z"></path>
<path fill="#fff" d="M44.749 11.49c0.896-0.13 1.801-0.191 2.707-0.184 1.64 0 2.656 0.266 3.501 0.847 0.938 0.646 1.542 1.708 1.542 3.271 0 1.734-0.656 2.861-1.487 3.509-0.935 0.725-2.33 1.048-3.995 1.048-0.758 0.010-1.516-0.037-2.267-0.139v-8.352zM47.026 18.185c0.16 0.021 0.322 0.030 0.484 0.025 1.476 0.018 2.569-0.792 2.569-2.713 0-1.663-0.984-2.446-2.359-2.446-0.233-0.007-0.465 0.012-0.694 0.056v5.079z"></path>
<path fill="#fff" d="M60.826 16.454h-3.060v1.568h3.424v1.864h-5.704v-8.514h5.524v1.864h-3.244v1.375h3.060v1.844z"></path>
<path fill="#fff" d="M66.367 19.886l-2.705-8.514h2.503l0.904 3.351c0.268 0.953 0.502 1.885 0.707 2.977h0.024c0.205-1.038 0.449-2.024 0.699-2.94l0.925-3.386h2.428l-2.788 8.514-2.697-0.003z"></path>
<path fill="#fff" d="M79.891 16.454h-3.064v1.568h3.421v1.864h-5.701v-8.514h5.523v1.864h-3.243v1.375h3.064v1.844z"></path>
<path fill="#fff" d="M83.287 11.372h2.28v6.603h3.281v1.911h-5.561v-8.514z"></path>
<path fill="#fff" d="M99.249 15.543c0 2.738-1.64 4.482-4.265 4.482s-4.101-1.98-4.101-4.346c0-2.479 1.623-4.446 4.231-4.446 2.745 0 4.136 2.031 4.136 4.31zM93.301 15.639c0 1.601 0.697 2.58 1.786 2.58s1.75-1.068 1.75-2.602c0-1.467-0.656-2.577-1.763-2.577-1.074 0-1.772 1.027-1.772 2.598h-0.001z"></path>
<path fill="#fff" d="M102.236 11.49c0.929-0.136 1.868-0.198 2.807-0.184 1.226 0 2.103 0.221 2.701 0.679 0.309 0.243 0.558 0.554 0.727 0.91s0.251 0.746 0.242 1.139c0 0.863-0.288 1.617-0.828 2.1-0.688 0.617-1.687 0.891-2.835 0.891-0.222 0-0.416-0.018-0.556-0.028v2.889h-2.257v-8.396zM104.498 15.247c0.173 0.027 0.347 0.038 0.522 0.033 0.886 0 1.442-0.459 1.442-1.191 0-0.635-0.42-1.065-1.288-1.065-0.227-0.004-0.453 0.015-0.676 0.059v2.164z"></path>
<path fill="#fff" d="M116.948 16.454h-3.060v1.568h3.419v1.864h-5.699v-8.514h5.522v1.864h-3.242v1.375h3.060v1.844z"></path>
<path fill="#fff" d="M120.349 11.49c0.911-0.129 1.831-0.191 2.751-0.184 1.313 0 2.238 0.18 2.879 0.656 0.546 0.417 0.84 1.024 0.84 1.857 0 1.061-0.796 1.816-1.458 2.059v0.044c0.566 0.243 0.871 0.786 1.089 1.526 0.256 0.865 0.536 2.103 0.701 2.431h-2.33c-0.129-0.246-0.351-0.912-0.597-1.969-0.232-1.020-0.543-1.232-1.247-1.232h-0.371v3.192h-2.257v-8.381zM122.606 15.051h0.594c0.86 0 1.355-0.42 1.355-1.058s-0.42-1.001-1.178-1.007c-0.258-0.011-0.517 0.006-0.771 0.051v2.014z"></path>
<path fill="#fff" d="M130.062 17.619c0.689 0.335 1.442 0.515 2.208 0.527 0.779 0 1.165-0.271 1.165-0.7s-0.382-0.646-1.345-0.976c-1.434-0.509-2.39-1.301-2.39-2.567 0-1.506 1.27-2.661 3.42-2.661 0.788-0.019 1.57 0.129 2.297 0.435l-0.477 1.823c-0.581-0.264-1.212-0.402-1.851-0.404-0.694 0-1.076 0.254-1.076 0.628 0 0.431 0.451 0.605 1.525 1.007 1.534 0.561 2.22 1.383 2.22 2.567 0 1.476-1.148 2.722-3.629 2.722-1.027 0-2.021-0.269-2.503-0.518l0.436-1.882z"></path>
</svg>
