<!-- Generated by IcoMoon.io -->
<svg version="1.1" xmlns="http://www.w3.org/2000/svg" width="32" height="32" viewBox="0 0 32 32">
<title>viber</title>
<path fill="#fff" d="M8.144 28.9c0-0.535 0.178-1.115-0.045-1.516-0.223-0.357-0.847-0.491-1.293-0.714-2.364-1.249-4.192-3.033-5.129-5.53-0.401-0.981-0.535-2.096-0.714-3.166s-0.223-2.141-0.268-3.211c-0.089-2.319 0.178-4.638 0.669-6.913 0.268-1.293 0.937-2.408 1.739-3.389 1.249-1.561 2.765-2.854 4.683-3.479 1.115-0.357 2.275-0.535 3.434-0.669 1.561-0.178 3.166-0.312 4.728-0.312s3.122 0.134 4.683 0.268c1.026 0.089 2.051 0.268 3.077 0.491 1.784 0.401 3.256 1.427 4.549 2.676 1.249 1.204 2.275 2.631 2.631 4.371 0.535 2.542 0.847 5.084 0.624 7.671-0.134 1.561-0.312 3.077-0.58 4.638-0.312 1.784-1.293 3.166-2.542 4.415-1.293 1.338-2.765 2.408-4.638 2.81-1.427 0.312-2.899 0.446-4.326 0.624-0.758 0.089-1.561 0.134-2.364 0.134-0.892 0-1.829-0.045-2.72-0.045-0.223 0-0.535 0.134-0.714 0.312-1.026 1.026-1.962 2.051-2.944 3.077-0.714 0.714-1.695 0.758-2.23 0.045-0.223-0.312-0.312-0.758-0.357-1.115 0-0.535 0.045-0.981 0.045-1.472zM9.393 27.517c0 0.446 0 0.892 0 1.338s0 0.892 0 1.338c0 0.134 0.089 0.312 0.178 0.357s0.268-0.089 0.357-0.178c0.089-0.045 0.134-0.134 0.223-0.223 1.516-1.561 2.988-3.077 4.504-4.594 0.178-0.178 0.446-0.312 0.713-0.312 2.141 0 4.282-0.178 6.422-0.446 1.249-0.178 2.408-0.491 3.434-1.293 1.338-1.070 2.587-2.23 2.899-3.969 0.312-1.65 0.491-3.345 0.58-5.040 0.045-1.383-0.134-2.81-0.268-4.192-0.134-1.472-0.491-2.899-1.561-4.103s-2.275-2.319-3.925-2.631c-1.606-0.312-3.211-0.491-4.861-0.58-2.676-0.134-5.396-0.045-8.028 0.446-2.854 0.491-4.817 2.141-5.798 4.817-0.446 1.204-0.535 2.542-0.624 3.835-0.089 1.65-0.045 3.345 0.089 4.995 0.045 0.981 0.178 2.007 0.535 2.944 0.803 2.185 2.408 3.613 4.549 4.46 0.401 0.178 0.58 0.357 0.58 0.803-0.045 0.669 0 1.472 0 2.23z"></path>
<path fill="#fff" d="M17.376 18.018c0.178-0.089 0.401-0.178 0.58-0.312 0.223-0.178 0.357-0.446 0.58-0.624 0.446-0.446 0.981-0.624 1.516-0.312 0.981 0.669 1.962 1.338 2.899 2.096 0.357 0.268 0.491 0.669 0.268 1.115-0.491 1.115-1.204 2.007-2.453 2.364-0.178 0.045-0.357 0.045-0.535 0-4.148-1.472-7.626-3.791-9.945-7.626-0.803-1.293-1.383-2.721-2.052-4.103-0.357-0.669-0.223-1.293 0.178-1.918 0.491-0.714 1.115-1.249 1.873-1.606 0.446-0.223 0.937-0.178 1.249 0.223 0.714 0.892 1.383 1.829 2.007 2.81 0.446 0.714 0.223 1.293-0.401 1.829-0.134 0.089-0.223 0.178-0.357 0.268-0.401 0.312-0.491 0.713-0.312 1.16 0.758 2.096 2.141 3.657 4.282 4.46 0.178 0.089 0.357 0.089 0.624 0.178z"></path>
<path fill="#fff" d="M23.798 13.915c0 0.134 0.089 0.312 0.045 0.446-0.089 0.178-0.223 0.446-0.401 0.491-0.134 0.045-0.446-0.223-0.491-0.357-0.134-0.446-0.134-0.892-0.178-1.338-0.178-2.631-2.185-5.129-4.727-5.753-0.535-0.134-1.115-0.178-1.695-0.268-0.134 0-0.223-0.045-0.357-0.045-0.312-0.045-0.535-0.134-0.535-0.491 0.045-0.401 0.357-0.491 0.669-0.491 3.434 0.134 6.378 2.096 7.359 5.619 0.178 0.714 0.268 1.472 0.357 2.185 0-0.045 0 0-0.045 0z"></path>
<path fill="#fff" d="M21.88 13.424c-0.045 0.089 0 0.268-0.089 0.357-0.134 0.134-0.312 0.312-0.491 0.312-0.134 0-0.357-0.223-0.357-0.357-0.134-0.491-0.134-1.070-0.268-1.561-0.446-1.695-1.873-2.854-3.657-3.033-0.178 0-0.312-0.045-0.491-0.089-0.268-0.045-0.446-0.223-0.401-0.491 0.045-0.312 0.268-0.446 0.535-0.446 2.631 0.178 4.861 1.829 5.173 4.727 0 0.134 0.045 0.357 0.045 0.58z"></path>
<path fill="#fff" d="M17.286 10.125c1.516 0.045 2.676 1.338 2.587 2.765 0 0.312-0.134 0.58-0.446 0.535-0.178-0.045-0.357-0.268-0.535-0.446-0.045-0.045 0-0.134 0-0.178-0.223-1.16-0.535-1.472-1.739-1.695-0.312-0.045-0.535-0.223-0.535-0.535 0.045-0.312 0.268-0.446 0.58-0.446 0.089 0 0.134 0 0.089 0z"></path>
</svg>
