<!-- Generated by IcoMoon.io -->
<svg version="1.1" xmlns="http://www.w3.org/2000/svg" width="33" height="32" viewBox="0 0 33 32">
<title>whatsapp</title>
<path fill="#fff" d="M0.379 32l2.256-8.588c-1.263-2.35-1.985-4.972-1.985-7.593 0-8.768 7.128-15.819 15.789-15.819s15.79 7.051 15.79 15.819c0 8.678-7.038 15.819-15.79 15.819-2.617 0-5.143-0.633-7.489-1.898l-8.571 2.26zM9.401 26.486l0.541 0.362c1.985 1.175 4.241 1.808 6.496 1.808 7.038 0 12.812-5.785 12.812-12.836s-5.774-12.836-12.812-12.836-12.812 5.785-12.812 12.836c0 2.35 0.632 4.61 1.895 6.599l0.361 0.542-1.263 4.791 4.782-1.265z"></path>
<path fill="#fff" d="M22.303 17.989c-0.632-0.362-1.534-0.814-2.256-0.542-0.631 0.271-0.992 1.175-1.353 1.627-0.18 0.271-0.451 0.271-0.722 0.181-2.165-0.904-3.88-2.35-5.143-4.339-0.181-0.271-0.181-0.542 0.090-0.813 0.361-0.452 0.812-0.904 0.902-1.537 0.090-0.542-0.181-1.265-0.451-1.808-0.271-0.633-0.631-1.627-1.353-1.989-0.632-0.362-1.444-0.181-1.985 0.271-0.902 0.723-1.353 1.989-1.353 3.164 0 0.361 0.090 0.633 0.090 0.994 0.18 0.814 0.541 1.537 0.992 2.169 0.271 0.542 0.632 0.994 0.992 1.537 1.173 1.627 2.617 2.983 4.331 4.068 0.812 0.542 1.804 0.994 2.707 1.266 1.083 0.361 1.985 0.723 3.158 0.542 1.173-0.271 2.346-0.994 2.887-2.169 0.18-0.361 0.18-0.723 0.090-1.085 0-0.723-0.992-1.175-1.624-1.537z"></path>
</svg>
