<!-- Generated by IcoMoon.io -->
<svg version="1.1" xmlns="http://www.w3.org/2000/svg" width="33" height="32" viewBox="0 0 33 32">
<title>insta</title>
<path fill="#fff" d="M16.225 0.208c-3.948 0-4.571 0-6.234 0.104s-2.909 0.312-3.844 0.727c-1.039 0.416-1.974 0.935-2.805 1.87-0.935 0.935-1.455 1.766-1.87 2.805s-0.623 2.182-0.727 3.844c-0.104 1.662-0.104 2.286-0.104 6.545 0 4.364 0 4.883 0.104 6.546s0.312 2.909 0.727 3.844c0.416 1.039 0.935 1.974 1.87 2.805 0.935 0.935 1.766 1.454 2.805 1.87s2.182 0.623 3.844 0.727 2.286 0.104 6.545 0.104c4.364 0 4.883 0 6.546-0.104s2.909-0.312 3.844-0.727c1.039-0.416 1.974-0.935 2.805-1.87 0.935-0.935 1.454-1.766 1.87-2.805s0.623-2.182 0.727-3.844c0.104-1.662 0.104-2.182 0.104-6.234v-0.831c0-3.948 0-4.571-0.104-6.234s-0.312-2.909-0.727-3.844c-0.416-1.039-0.935-1.974-1.87-2.805-0.935-0.935-1.766-1.455-2.805-1.87s-2.182-0.623-3.844-0.727c-1.662-0.104-2.182-0.104-6.234-0.104h-0.623v0.208zM27.134 7.584c0 1.039-0.831 1.87-1.87 1.87s-1.87-0.831-1.87-1.87c0-1.039 0.831-1.87 1.87-1.87 0.935 0 1.87 0.831 1.87 1.87zM16.641 21.403c-2.909 0-5.299-2.39-5.299-5.299s2.39-5.299 5.299-5.299c2.909 0 5.299 2.39 5.299 5.299s-2.39 5.299-5.299 5.299zM16.641 7.896c4.571 0 8.208 3.636 8.208 8.208s-3.636 8.208-8.208 8.208c-4.571 0-8.208-3.636-8.208-8.208s3.74-8.208 8.208-8.208zM16.641 3.013c4.26 0 4.779 0 6.442 0.104 1.558 0.104 2.39 0.312 3.013 0.519 0.727 0.312 1.247 0.623 1.87 1.143 0.52 0.519 0.935 1.039 1.143 1.87 0.208 0.519 0.52 1.455 0.52 3.013 0.104 1.662 0.104 2.182 0.104 6.442s0 4.779-0.104 6.442c-0.104 1.558-0.312 2.39-0.52 3.013-0.312 0.727-0.623 1.247-1.143 1.87-0.519 0.519-1.039 0.935-1.87 1.143-0.52 0.208-1.454 0.519-3.013 0.519-1.662 0.104-2.182 0.104-6.442 0.104s-4.779 0-6.441-0.104c-1.558-0.104-2.39-0.312-3.013-0.519-0.727-0.312-1.247-0.623-1.87-1.143-0.519-0.519-0.935-1.039-1.143-1.87-0.208-0.519-0.519-1.454-0.519-3.013-0.104-1.662-0.104-2.182-0.104-6.442s0-4.779 0.104-6.442c0.104-1.558 0.312-2.39 0.519-3.013 0.312-0.727 0.623-1.247 1.143-1.87 0.519-0.519 1.039-0.935 1.87-1.143 0.519-0.208 1.455-0.519 3.013-0.519 1.662-0.104 2.182-0.104 6.441-0.104z"></path>
</svg>
